name processed_emg_signals
nRows=57
nColumns=7
 
endheader
time	LGLTMED	LRF	LADDLONG	LST	LTA	LGM
0.97	0.0784961008423992	0.1563537459562407	0.6034834303070392	0.0386037354352599	0.2890365844625767	0.0855586784684721
0.971	0.0783772687274277	0.15631040912217	0.6047128466233243	0.0388070363729856	0.2876033895853037	0.0853301907905514
0.972	0.0782572281318549	0.1562630488656606	0.605964596921106	0.0389949817989714	0.2861706177500873	0.0850862381330782
0.973	0.0781360439689809	0.156211537881947	0.6072337961039425	0.0391669132474912	0.2847396527957435	0.0848276229961096
0.974	0.0780137839984771	0.156155759552401	0.6085155161399081	0.0393221772563644	0.2833118185489479	0.0845551404178912
0.975	0.077890518997285	0.1560956079474365	0.6098047963845677	0.0394601263816118	0.2818883778096133	0.0842695771637324
0.976	0.0777663229262404	0.1560309878160286	0.6110966540140573	0.0395801202314464	0.2804705314719346	0.0839717109550793
0.977	0.0776412730916213	0.1559618145629762	0.612386094545422	0.0396815265188033	0.2790594177796876	0.0836623097375482
0.978	0.0775154503006848	0.1558880142146939	0.6136681224194692	0.0397637221316413	0.277656111713932	0.083342130986716
0.979	0.077388939010553	0.1558095233745873	0.6149377516198341	0.0398260942201851	0.2762616245106731	0.0830119210504099
0.98	0.077261827469742	0.1557262891684056	0.6161900163008059	0.0398680413002744	0.2748769033056463	0.0826724145262865
0.981	0.0771342078518299	0.1556382691799256	0.6174199813949496	0.0398889743718988	0.2735028309031703	0.0823243336736656
0.982	0.0770061763807282	0.155545431376668	0.6186227531706259	0.0398883180520231	0.2721402256659426	0.081968387858719
0.983	0.0768778334471201	0.1554477540253855	0.6197934897082303	0.0398655117207384	0.2707898415228918	0.0816052730323014
0.984	0.0767492837154808	0.1553452255967791	0.6209274112635947	0.0398200106797925	0.2694523680924782	0.0812356712398841
0.985	0.0766206362211015	0.1552378446591086	0.622019810485582	0.0397512873225164	0.268128430918917	0.0808602501631714
0.986	0.0764920044566998	0.155125619760368	0.6230660624549041	0.0396588323141465	0.2668185918189384	0.0804796626929872
0.987	0.0763635064481678	0.1550085692989067	0.6240616345101667	0.0395421557814745	0.2655233493364588	0.0800945465331583
0.988	0.0762352648193871	0.1548867213828395	0.6250020958275178	0.0394007885106492	0.2642431393024189	0.079705523835076
0.989	0.0761074068459997	0.1547601136787619	0.6258831267192113	0.039234283151958	0.262978335496818	0.0793132008627534
0.99	0.0759800644982379	0.1546287932505721	0.6267005276173303	0.0390422154302821	0.2617292504100721	0.0789181676881509
0.991	0.0758533744730436	0.1544928163891197	0.6274502277083339	0.0388241853598844	0.2604961361010925	0.0785209979166137
0.992	0.0757274782156572	0.1543522484333352	0.6281282931832446	0.0385798184621236	0.2592791851495963	0.0781222484422535
0.993	0.0756025219312254	0.1542071635833162	0.6287309350701673	0.03830876698465	0.2580785317000403	0.0777224592331037
0.994	0.0754786565867751	0.1540576447053805	0.6292545166168694	0.0380107111205391	0.2568942525942399	0.0773221531457988
0.995	0.0753560379041472	0.1539037831292526	0.6296955601961608	0.037685360225825	0.2557263685892307	0.076921835769514
0.996	0.075234826344368	0.1537456784369471	0.6300507537103572	0.0373324540338231	0.2545748456565937	0.0765219952988189
0.997	0.0751151870838024	0.1535834382429349	0.6303169564764153	0.0369517638646151	0.2534395963592287	0.0761231024350115
0.998	0.0749972899824341	0.1534171779651656	0.6304912045773385	0.036543093828051	0.2523204813014482	0.0757256103155026
0.999	0.0748813095445227	0.153247020586252	0.6305707156698415	0.0361062820186508	0.2512173106484137	0.0753299544707576
1.0	0.0747674248717665	0.1530730964046884	0.6305528932407924	0.0356412017007283	0.2501298457111707	0.0749365528082149
1.0010000000000001	0.0746558196093736	0.1528955427758111	0.6304353303079999	0.0351477624820567	0.249057800593953	0.0745458056225094
1.002	0.0745466818852408	0.1527145038426423	0.6302158125622053	0.0346259114743493	0.2480008439009111	0.074158095631237
1.0030000000000001	0.0744402042426131	0.1525301302567298	0.629892320949547	0.0340756344388296	0.2469586004999021	0.073773788035476
1.004	0.074336583566268	0.1523425788889996	0.6294630336954757	0.0334969569151219	0.2459306533412603	0.0733932306042599
1.0050000000000001	0.0742360210022991	0.1521520125306613	0.6289263277733292	0.0328899453317376	0.2449165453294781	0.0730167537822168
1.006	0.0741387218712537	0.1519585995843591	0.6282807798238564	0.0322547080964106	0.2439157812455926	0.0726446708193978
1.0070000000000001	0.0740448955743674	0.1517625137457033	0.6275251665332843	0.03159139666453	0.2429278297177247	0.0722772779223402
1.008	0.0739547554924449	0.1515639336757383	0.6266584644807482	0.0309002065839042	0.2419521252365875	0.0719148544253167
1.0090000000000001	0.0738685188769423	0.1513630426647063	0.6256798494690352	0.0301813785140714	0.2409880702122079	0.0715576629807215
1.01	0.0737864067326228	0.151160028287589	0.6245886953560457	0.0294351992183501	0.2400350370673735	0.0712059497676875
1.0110000000000001	0.0737086436911866	0.1509550820519812	0.6233845724078018	0.0286620025268396	0.2390923703627461	0.0708599447180943
1.012	0.0736354578751292	0.1507483990386488	0.622067245197059	0.0278621702685755	0.2381593889480564	0.0705198617591828
1.0130000000000001	0.073567080751287	0.1505401775351097	0.620636670072827	0.0270361331710436	0.2372353881335362	0.0701858990719594
1.014	0.0735037469735551	0.1503306186625071	0.6190929922264481	0.0261843717252563	0.2363196418755879	0.0698582393645058
1.0150000000000001	0.0734456942144716	0.1501199259959998	0.6174365423790922	0.0253074170146042	0.2354114049707606	0.0695370501592672
1.016	0.0733931629854302	0.1499083051791646	0.6156678331143195	0.0244058515056851	0.2345099152520916	0.0692224840933459
1.0170000000000001	0.0733463964453056	0.1496959635328687	0.6137875548779324	0.0234803097992714	0.2336143957820086	0.0689146792308733
1.018	0.0733056401970955	0.1494831096591818	0.6117965716666582	0.0225314793396279	0.2327240570362201	0.0686137593864539
1.0190000000000001	0.0732711420720471	0.1492699530409443	0.60969591642634	0.0215601010803109	0.231838099073557	0.0683198344587119
1.02	0.0732431519006339	0.1490567036378693	0.6074867861802369	0.0205669701045892	0.2309557136876063	0.0680330007728842
1.0210000000000001	0.0732219212697251	0.1488435714799369	0.6051705369088273	0.0195529361985495	0.2300760865371495	0.0677533414314558
1.022	0.0732077032654069	0.1486307662593765	0.6027486782020538	0.0185189043749716	0.2291983992535841	0.067480926671844
1.0230000000000001	0.0732007522010157	0.1484184969222016	0.6002228677060726	0.0174658353460408	0.2283218315242563	0.0672158142301776
1.024	0.073201323330024	0.1482069712609307	0.5975949053852461	0.0163947459429465	0.2274455631509112	0.0669580497101979
1.025	0.0732096725434671	0.1479963955100827	0.5948667276198069	0.0153067094805266	0.2265687760822375	0.0667076669562387
1.026	0.0732260560516408	0.1477869739461463	0.5920404011585434	0.0142028560650345	0.2256906564189653	0.0664646884294049
